<?xml version="1.0" standalone="no"?>
<!DOCTYPE svg PUBLIC "-//W3C//DTD SVG 20010904//EN"
 "http://www.w3.org/TR/2001/REC-SVG-20010904/DTD/svg10.dtd">
<svg version="1.0" xmlns="http://www.w3.org/2000/svg"
 width="396.000000pt" height="396.000000pt" viewBox="0 0 396.000000 396.000000"
 preserveAspectRatio="xMidYMid meet">

<g transform="translate(0.000000,396.000000) scale(0.100000,-0.100000)"
fill="#000000" stroke="none">
<path d="M1818 3786 c-167 -88 -1344 -775 -1380 -805 -20 -17 -50 -58 -67 -92
l-31 -62 0 -841 c0 -776 1 -845 17 -890 37 -103 52 -113 798 -544 380 -219
705 -404 724 -410 19 -7 64 -12 101 -12 37 0 82 5 101 12 55 19 1411 807 1448
841 18 18 46 59 62 92 l29 60 0 840 c0 776 -1 844 -17 889 -35 98 -66 119
-748 514 -827 478 -776 452 -875 452 -75 0 -85 -3 -162 -44z m353 -731 c282
-49 554 -225 710 -458 21 -33 39 -62 39 -66 -1 -3 -105 -66 -233 -139 l-231
-133 -20 28 c-11 15 -45 53 -75 83 -222 221 -580 208 -790 -27 -194 -217 -183
-542 23 -749 173 -174 419 -213 638 -103 59 30 177 135 209 187 l14 23 224
-130 c123 -71 228 -134 233 -139 13 -13 -85 -146 -167 -227 -136 -134 -308
-233 -493 -282 -87 -24 -115 -27 -272 -27 -157 0 -185 3 -272 27 -616 165
-963 810 -759 1411 126 370 452 652 834 721 98 18 287 18 388 0z m779 -955 l0
-60 60 0 60 0 0 -60 0 -60 -60 0 -60 0 0 -60 0 -60 -60 0 -60 0 0 60 0 60 -60
0 -60 0 0 60 0 60 60 0 60 0 0 60 0 60 60 0 60 0 0 -60z m450 0 l0 -60 65 0
65 0 0 -60 0 -60 -65 0 -65 0 0 -60 0 -60 -55 0 -55 0 0 60 0 60 -60 0 -60 0
0 60 0 60 60 0 60 0 0 60 0 60 55 0 55 0 0 -60z"/>
</g>
</svg>
