<?xml version="1.0" encoding="utf-8"?>
<!-- Generator: Adobe Illustrator 24.1.1, SVG Export Plug-In . SVG Version: 6.00 Build 0)  -->
<svg version="1.1" id="Layer_1" xmlns="http://www.w3.org/2000/svg" xmlns:xlink="http://www.w3.org/1999/xlink" x="0px" y="0px"
	 viewBox="0 0 512 512" style="enable-background:new 0 0 512 512;" xml:space="preserve">
<g>
	<path d="M256.9,511.3c10.3-0.1,20.3-0.7,30.4-2c23.1-3,45.7-9.2,67.1-18.4c30.1-12.8,57.6-31.4,80.9-54.3
		c21.4-21.1,39.3-45.9,52.1-73.2c10.8-23.3,18.6-48.5,21.7-74.1c3.2-24.7,2.9-50.1-0.9-74.7c-3.2-20.5-9-40.4-16.9-59.5
		c-5.2-11.9-11.2-23.5-18.2-34.5c-24.9-39.2-61-70.7-102.6-91.7c-14.8-7.6-30.4-13.7-46.3-18.5H324c2.6,1.3,5.2,2.7,7.4,4.2
		c2.5,1.6,5.1,3.2,7.5,4.8c12.1,8.2,23.3,17.6,33.2,28.3c22.7,24.4,38.3,54.4,47.2,86.3c6.1,20.9,9.3,42.6,10.6,64.3
		c0.9,15.8,0.9,31.8-1,47.6c-3.2,27.1-11.8,53.5-26.2,76.7c-10.6,17.2-24.3,32.4-40.6,44.5c-26.6,19.7-61.4,31.6-94.7,23.7
		c-5.4-1.3-10.9-3.1-15.9-5.5c-5.8-2.7-11.6-5.9-16.7-9.6c-9.9-6.7-18.8-14.6-26.5-23.6c-9.3-11.1-17-23.7-22.4-37.2
		c-6.7-17.2-10.3-35.7-10.5-54.2c-0.7-27.2,4.8-54.4,18.2-78.3c9-15.9,21.1-29.8,35.5-40.9c4.8-3.8,9.9-7.1,15-10.3l0.3-0.2
		c-9.9-2.2-20.4-3.2-30.7-2.5c-8.9,0.6-17.5,2.3-26.2,5.1c-7.7,2.6-15,5.7-21.7,9.6c-5.4,3.2-10.8,6.8-15.6,10.6
		c-4.5,3.8-9,7.7-13.2,11.8C113.3,190.4,99.5,223,94,256.6c-3.2,20.8-3.2,41.8-1.9,63c2.3,29.7,8.3,59.4,20.2,86.6
		c7.3,17,16.9,32.6,28.8,46.4c18.2,21,41.2,37.4,66.8,47.6c14.4,5.7,29.7,9.9,45.1,11.5c1.6,0.3,3.2,0.3,4.4,0.3L256.9,511.3z
		 M194.3,502.8c-3.5-1.5-6.7-3.2-9.6-4.8c-3.2-1.8-6.4-3.6-9.6-5.6c-12.5-7.7-23.7-16.7-33.9-27.2c-23.3-24.3-39-54.7-47.9-87.1
		c-6.1-22.1-9.3-44.8-10.6-67.7c-0.9-15-0.6-29.7,1-44.4c2.8-26.8,10.6-53.3,24-76.3c9.5-17,22.7-32,38-43.8
		c10.5-8,22.4-14.7,34.8-19.2c17.6-6.4,36.4-8.3,54.7-5.7c7.1,0.9,14.1,2.5,20.5,4.7l0.9,0.7l1.3,0.6l3.5,1.6c5.1,2.6,10.2,5.8,15,9
		c19.2,13.4,34.8,31.9,44.7,53.3c8.9,19.5,13.1,41.3,13.4,62.7c0.3,23-3.8,46-13.7,67.1c-11.8,25.2-31.9,46.7-56.2,60.4
		c1.9,0.7,3.8,0.9,5.7,1.6c4.8,0.9,9.6,1.6,14.7,1.6c31.3,1,61.7-14.1,84.1-35.2c4.2-3.8,8-8,11.5-12.4c4.8-5.7,9.3-11.5,13.2-17.6
		c5.1-8,9.2-16,13.1-24.6c4.8-11.5,8.6-23.3,10.8-35.5c4.2-21.4,4.5-43.2,3.2-64.6c-2.8-43.2-14.3-86.3-39.2-122.1
		c-3.8-5.4-7.7-10.6-11.8-15.3c-7.1-8-14.7-15.4-22.7-22.1c-8.9-7.3-18.8-14.1-29.1-19.5c-10.5-4.7-23-9.6-36.1-12.7l-6.4-1.3
		c-4.4-0.7-8.9-0.9-13.5-1.2c-6.9-0.3-14.3-0.3-21.7,0.3c-15,0.9-30.1,3.4-45,7.2C123.8,26.2,61.1,76.1,27.8,142.3
		c-10.7,21.1-18.3,43.7-22.7,66.8c-5.1,26.5-5.7,53.8-2.3,80.5c2.6,21.7,8,43.2,16.6,63.5c4.9,12.2,10.9,24,17.7,35.2
		c23.3,38.1,57.2,69.1,96.2,90.5c14.7,8.3,30.1,14.7,46,20.2c4.8,1.6,9.7,3.2,14.7,4.4L194.3,502.8z"/>
</g>
</svg>
