<?xml version="1.0" encoding="utf-8"?>
<!-- Generator: Adobe Illustrator 24.1.1, SVG Export Plug-In . SVG Version: 6.00 Build 0)  -->
<svg version="1.1" id="Layer_1" xmlns="http://www.w3.org/2000/svg" xmlns:xlink="http://www.w3.org/1999/xlink" x="0px" y="0px"
	 viewBox="0 0 512 512" style="enable-background:new 0 0 512 512;" xml:space="preserve">
<g>
	<path d="M0,6.4v499.2h512V6.4H0z M21.3,27.7h469.3v456.5H21.3V27.7z M123.7,123.3c0-1.4,3-2.5,4.8-2.5c13.8-0.7,33.9-1.1,55-1.1
		c59.2,0,82.2,32.4,82.2,73.9c0,54.3-39.3,77.5-87.5,77.5c-8.2,0-10.9-0.4-16.6-0.4v82c0,1.7-0.7,2.5-2.4,2.5h-33
		c-1.7,0-2.4-0.7-2.4-2.4V123.3z M161.6,236.7c4.9,0.3,8.8,0.3,17.3,0.3c24.9,0,48.4-8.8,48.4-42.6c0-27.1-16.8-40.8-45.3-40.8
		c-8.4,0-16.5,0.3-20.4,0.7V236.7z M345.3,211.3c-16.9,0-22.6,8.5-22.6,15.5c0,7.7,3.8,13,26.4,24.7c33.4,16.3,44,31.7,44,54.6
		c0,34.1-26.1,52.4-61.2,52.4c-18.7,0-34.6-3.9-43.8-9.2c-1.3-0.7-1.7-1.7-1.7-3.5v-31.3c0-2.1,1-2.8,2.4-1.7
		c13.3,8.8,28.8,12.7,42.9,12.7c16.9,0,23.9-7,23.9-16.6c0-7.7-4.9-14.4-26.3-25.7c-30.3-14.5-43-29.2-43-53.9
		c0-27.5,21.5-50.3,58.8-50.3c18.3,0,31.3,2.8,38.3,5.9c1.8,1.1,2.1,2.8,2.1,4.3v29.3c0,1.7-1.1,2.8-3.2,2.1
		C372.8,214.8,358.8,211.2,345.3,211.3L345.3,211.3z"/>
</g>
</svg>
